<svg xmlns="http://www.w3.org/2000/svg" width="1380" height="1492" viewBox="0 0 1380 1492">
<rect x="0.0" y="0.0" width="1380.0" height="1492.0" rx="4" fill="#FFFFFF" stroke="none" stroke-width="1" opacity="1.0"/>
<rect x="0.0" y="0.0" width="1380.0" height="116.0" rx="0" fill="#F9FAFB" stroke="none" stroke-width="0" opacity="1.0"/>
<line x1="0" y1="116" x2="1380" y2="116" stroke="#D1D5DB" stroke-width="1"/>
<text x="690.0" y="28.0" text-anchor="middle" style="font-family:-apple-system,'SF Pro Text','Inter','Helvetica Neue',sans-serif;font-size:20px;font-weight:600;" fill="#1C1C1E">Research Harness — Session Architecture</text>
<text x="690.0" y="48.0" text-anchor="middle" style="font-family:-apple-system,'SF Pro Text','Inter','Helvetica Neue',sans-serif;font-size:11px;" fill="#6B7280">Startup · Task Routing · Session Loop · Finalization · Phases 6–7</text>
<rect x="14.0" y="146.0" width="1352.0" height="417.0" rx="6" fill="#6B7280" stroke="none" stroke-width="0" opacity="0.05"/>
<rect x="14.0" y="556.0" width="1352.0" height="547.0" rx="6" fill="#D97843" stroke="none" stroke-width="0" opacity="0.07"/>
<rect x="26.0" y="570.0" width="1328.0" height="186.0" rx="6" fill="#6B7280" stroke="none" stroke-width="0" opacity="0.06"/>
<rect x="26.0" y="744.0" width="1328.0" height="350.0" rx="6" fill="#6B7280" stroke="none" stroke-width="0" opacity="0.06"/>
<rect x="14.0" y="1096.0" width="1352.0" height="134.0" rx="6" fill="#6B7280" stroke="none" stroke-width="0" opacity="0.05"/>
<rect x="14.0" y="1223.0" width="1352.0" height="229.0" rx="6" fill="#6B7280" stroke="none" stroke-width="0" opacity="0.05"/>
<rect x="14.0" y="556.0" width="1352.0" height="547.0" rx="6" fill="#D97843" stroke="#D97843" stroke-width="1.8" opacity="0.12" stroke-dasharray="8,4"/>
<rect x="14.0" y="555.0" width="172.4" height="17.0" rx="3" fill="#D97843" stroke="none" stroke-width="0" opacity="1.0"/>
<text x="100.2" y="568.0" text-anchor="middle" style="font-family:-apple-system,'SF Pro Text','Inter','Helvetica Neue',sans-serif;font-size:9px;font-weight:600;letter-spacing:0.08em;" fill="white">SESSION LOOP  (one run)</text>
<rect x="34.0" y="792.0" width="1312.0" height="254.0" rx="6" fill="#1C1C1E" stroke="#1C1C1E" stroke-width="1.8" opacity="0.04" stroke-dasharray="5,4"/>
<rect x="34.0" y="791.0" width="267.6" height="17.0" rx="3" fill="#1C1C1E" stroke="none" stroke-width="0" opacity="1.0"/>
<text x="167.8" y="804.0" text-anchor="middle" style="font-family:-apple-system,'SF Pro Text','Inter','Helvetica Neue',sans-serif;font-size:9px;font-weight:600;letter-spacing:0.08em;" fill="white">EVOLUTIONARY LOOP  [0 … N iterations]</text>
<text x="20.0" y="160.0" text-anchor="start" style="font-family:-apple-system,'SF Pro Text','Inter','Helvetica Neue',sans-serif;font-size:8.5px;font-weight:600;letter-spacing:0.1em;" fill="#1C1C1E">STARTUP</text>
<text x="20.0" y="443.0" text-anchor="start" style="font-family:-apple-system,'SF Pro Text','Inter','Helvetica Neue',sans-serif;font-size:8.5px;font-weight:600;letter-spacing:0.1em;" fill="#1C1C1E">TASK ROUTING</text>
<text x="32.0" y="584.0" text-anchor="start" style="font-family:-apple-system,'SF Pro Text','Inter','Helvetica Neue',sans-serif;font-size:8.5px;font-weight:600;letter-spacing:0.1em;" fill="#6B7280">RESEARCH PATH</text>
<text x="32.0" y="758.0" text-anchor="start" style="font-family:-apple-system,'SF Pro Text','Inter','Helvetica Neue',sans-serif;font-size:8.5px;font-weight:600;letter-spacing:0.1em;" fill="#6B7280">OPTIMIZE / CHALLENGE PATH</text>
<text x="20.0" y="1110.0" text-anchor="start" style="font-family:-apple-system,'SF Pro Text','Inter','Helvetica Neue',sans-serif;font-size:8.5px;font-weight:600;letter-spacing:0.1em;" fill="#1C1C1E">FINALIZATION</text>
<text x="20.0" y="1237.0" text-anchor="start" style="font-family:-apple-system,'SF Pro Text','Inter','Helvetica Neue',sans-serif;font-size:8.5px;font-weight:600;letter-spacing:0.1em;" fill="#1C1C1E">PHASES 6–7  EVOLUTION GATE</text>
<rect x="20.0" y="66.0" width="120.0" height="46.0" rx="5" fill="#FFFFFF" stroke="#1C1C1E" stroke-width="1.2" opacity="1.0"/>
<text x="80.0" y="94.5" text-anchor="middle" style="font-family:-apple-system,'SF Pro Text','Inter','Helvetica Neue',sans-serif;font-size:10.5px;font-weight:600;" fill="#1C1C1E">User</text>
<line x1="80.0" y1="112" x2="80.0" y2="1442" stroke="#D1D5DB" stroke-width="1" stroke-dasharray="5,5"/>
<rect x="210.0" y="66.0" width="120.0" height="46.0" rx="5" fill="#FFFFFF" stroke="#1C1C1E" stroke-width="1.2" opacity="1.0"/>
<text x="270.0" y="94.5" text-anchor="middle" style="font-family:-apple-system,'SF Pro Text','Inter','Helvetica Neue',sans-serif;font-size:10.5px;font-weight:600;" fill="#1C1C1E">Orchestrator</text>
<line x1="270.0" y1="112" x2="270.0" y2="1442" stroke="#D1D5DB" stroke-width="1" stroke-dasharray="5,5"/>
<rect x="410.0" y="66.0" width="120.0" height="46.0" rx="5" fill="#FFFFFF" stroke="#1C1C1E" stroke-width="1.2" opacity="1.0"/>
<text x="470.0" y="88.0" text-anchor="middle" style="font-family:-apple-system,'SF Pro Text','Inter','Helvetica Neue',sans-serif;font-size:10.5px;font-weight:600;" fill="#1C1C1E">TaskRouter /</text>
<text x="470.0" y="101.0" text-anchor="middle" style="font-family:-apple-system,'SF Pro Text','Inter','Helvetica Neue',sans-serif;font-size:10.5px;font-weight:600;" fill="#1C1C1E">EvolutionLoop</text>
<line x1="470.0" y1="112" x2="470.0" y2="1442" stroke="#D1D5DB" stroke-width="1" stroke-dasharray="5,5"/>
<rect x="600.0" y="66.0" width="120.0" height="46.0" rx="5" fill="#FFFFFF" stroke="#1C1C1E" stroke-width="1.2" opacity="1.0"/>
<text x="660.0" y="94.5" text-anchor="middle" style="font-family:-apple-system,'SF Pro Text','Inter','Helvetica Neue',sans-serif;font-size:10.5px;font-weight:600;" fill="#1C1C1E">LLM Client</text>
<line x1="660.0" y1="112" x2="660.0" y2="1442" stroke="#D1D5DB" stroke-width="1" stroke-dasharray="5,5"/>
<rect x="790.0" y="66.0" width="120.0" height="46.0" rx="5" fill="#FFFFFF" stroke="#1C1C1E" stroke-width="1.2" opacity="1.0"/>
<text x="850.0" y="88.0" text-anchor="middle" style="font-family:-apple-system,'SF Pro Text','Inter','Helvetica Neue',sans-serif;font-size:10.5px;font-weight:600;" fill="#1C1C1E">Agents /</text>
<text x="850.0" y="101.0" text-anchor="middle" style="font-family:-apple-system,'SF Pro Text','Inter','Helvetica Neue',sans-serif;font-size:10.5px;font-weight:600;" fill="#1C1C1E">Evaluators</text>
<line x1="850.0" y1="112" x2="850.0" y2="1442" stroke="#D1D5DB" stroke-width="1" stroke-dasharray="5,5"/>
<rect x="990.0" y="66.0" width="120.0" height="46.0" rx="5" fill="#FFFFFF" stroke="#1C1C1E" stroke-width="1.2" opacity="1.0"/>
<text x="1050.0" y="88.0" text-anchor="middle" style="font-family:-apple-system,'SF Pro Text','Inter','Helvetica Neue',sans-serif;font-size:10.5px;font-weight:600;" fill="#1C1C1E">Artifact</text>
<text x="1050.0" y="101.0" text-anchor="middle" style="font-family:-apple-system,'SF Pro Text','Inter','Helvetica Neue',sans-serif;font-size:10.5px;font-weight:600;" fill="#1C1C1E">Store</text>
<line x1="1050.0" y1="112" x2="1050.0" y2="1442" stroke="#D1D5DB" stroke-width="1" stroke-dasharray="5,5"/>
<rect x="1200.0" y="66.0" width="120.0" height="46.0" rx="5" fill="#FFFFFF" stroke="#1C1C1E" stroke-width="1.2" opacity="1.0"/>
<text x="1260.0" y="88.0" text-anchor="middle" style="font-family:-apple-system,'SF Pro Text','Inter','Helvetica Neue',sans-serif;font-size:10.5px;font-weight:600;" fill="#1C1C1E">World / Obs /</text>
<text x="1260.0" y="101.0" text-anchor="middle" style="font-family:-apple-system,'SF Pro Text','Inter','Helvetica Neue',sans-serif;font-size:10.5px;font-weight:600;" fill="#1C1C1E">Diagnostics</text>
<line x1="1260.0" y1="112" x2="1260.0" y2="1442" stroke="#D1D5DB" stroke-width="1" stroke-dasharray="5,5"/>
<line x1="80.0" y1="166.0" x2="270.0" y2="166.0" stroke="#1C1C1E" stroke-width="1.4" />
<polygon points="270.0,166.0 262.0,162.0 262.0,170.0" fill="#1C1C1E"/>
<text x="175.0" y="159.0" text-anchor="middle" style="font-family:-apple-system,'SF Pro Text','Inter','Helvetica Neue',sans-serif;font-size:10.5px;" fill="#1C1C1E">goal + flags</text>
<line x1="270.0" y1="218.0" x2="1260.0" y2="218.0" stroke="#1C1C1E" stroke-width="1.4" />
<polygon points="1260.0,218.0 1252.0,214.0 1252.0,222.0" fill="#1C1C1E"/>
<text x="765.0" y="211.0" text-anchor="middle" style="font-family:-apple-system,'SF Pro Text','Inter','Helvetica Neue',sans-serif;font-size:10.5px;" fill="#1C1C1E">load prior context + dedup keys</text>
<line x1="1260.0" y1="270.0" x2="270.0" y2="270.0" stroke="#6B7280" stroke-width="1.4" stroke-dasharray="6,3"/>
<polygon points="270.0,270.0 278.0,266.0 278.0,274.0" fill="#6B7280"/>
<text x="765.0" y="263.0" text-anchor="middle" style="font-family:-apple-system,'SF Pro Text','Inter','Helvetica Neue',sans-serif;font-size:10.5px;" fill="#6B7280">run history · provenance</text>
<line x1="270.0" y1="322.0" x2="660.0" y2="322.0" stroke="#1C1C1E" stroke-width="1.4" />
<polygon points="660.0,322.0 652.0,318.0 652.0,326.0" fill="#1C1C1E"/>
<text x="465.0" y="315.0" text-anchor="middle" style="font-family:-apple-system,'SF Pro Text','Inter','Helvetica Neue',sans-serif;font-size:10.5px;" fill="#1C1C1E">plan + source strategy</text>
<line x1="660.0" y1="374.0" x2="270.0" y2="374.0" stroke="#6B7280" stroke-width="1.4" stroke-dasharray="6,3"/>
<polygon points="270.0,374.0 278.0,370.0 278.0,378.0" fill="#6B7280"/>
<text x="465.0" y="367.0" text-anchor="middle" style="font-family:-apple-system,'SF Pro Text','Inter','Helvetica Neue',sans-serif;font-size:10.5px;" fill="#6B7280">ResearchPlan + SourceStrategy</text>
<line x1="270.0" y1="449.0" x2="470.0" y2="449.0" stroke="#1C1C1E" stroke-width="1.4" />
<polygon points="470.0,449.0 462.0,445.0 462.0,453.0" fill="#1C1C1E"/>
<text x="370.0" y="442.0" text-anchor="middle" style="font-family:-apple-system,'SF Pro Text','Inter','Helvetica Neue',sans-serif;font-size:10.5px;" fill="#1C1C1E">classify task</text>
<line x1="470.0" y1="501.0" x2="270.0" y2="501.0" stroke="#6B7280" stroke-width="1.4" stroke-dasharray="6,3"/>
<polygon points="270.0,501.0 278.0,497.0 278.0,505.0" fill="#6B7280"/>
<text x="370.0" y="494.0" text-anchor="middle" style="font-family:-apple-system,'SF Pro Text','Inter','Helvetica Neue',sans-serif;font-size:10.5px;" fill="#6B7280">research / optimize / challenge</text>
<line x1="270.0" y1="590.0" x2="850.0" y2="590.0" stroke="#1C1C1E" stroke-width="1.4" />
<polygon points="850.0,590.0 842.0,586.0 842.0,594.0" fill="#1C1C1E"/>
<text x="560.0" y="583.0" text-anchor="middle" style="font-family:-apple-system,'SF Pro Text','Inter','Helvetica Neue',sans-serif;font-size:10.5px;" fill="#1C1C1E">run pipeline  [Literature → Hypothesis → Critic → Synthesis]</text>
<line x1="850.0" y1="642.0" x2="1050.0" y2="642.0" stroke="#1C1C1E" stroke-width="1.4" />
<polygon points="1050.0,642.0 1042.0,638.0 1042.0,646.0" fill="#1C1C1E"/>
<text x="950.0" y="635.0" text-anchor="middle" style="font-family:-apple-system,'SF Pro Text','Inter','Helvetica Neue',sans-serif;font-size:10.5px;" fill="#1C1C1E">persist sources · claims · hypotheses · traces</text>
<line x1="850.0" y1="694.0" x2="270.0" y2="694.0" stroke="#6B7280" stroke-width="1.4" stroke-dasharray="6,3"/>
<polygon points="270.0,694.0 278.0,690.0 278.0,698.0" fill="#6B7280"/>
<text x="560.0" y="687.0" text-anchor="middle" style="font-family:-apple-system,'SF Pro Text','Inter','Helvetica Neue',sans-serif;font-size:10.5px;" fill="#6B7280">AgentTraces · scores</text>
<line x1="270.0" y1="764.0" x2="470.0" y2="764.0" stroke="#1C1C1E" stroke-width="1.4" />
<polygon points="470.0,764.0 462.0,760.0 462.0,768.0" fill="#1C1C1E"/>
<text x="370.0" y="757.0" text-anchor="middle" style="font-family:-apple-system,'SF Pro Text','Inter','Helvetica Neue',sans-serif;font-size:10.5px;" fill="#1C1C1E">EvolutionaryOuterLoop.run()</text>
<line x1="470.0" y1="816.0" x2="660.0" y2="816.0" stroke="#1C1C1E" stroke-width="1.4" />
<polygon points="660.0,816.0 652.0,812.0 652.0,820.0" fill="#1C1C1E"/>
<text x="565.0" y="809.0" text-anchor="middle" style="font-family:-apple-system,'SF Pro Text','Inter','Helvetica Neue',sans-serif;font-size:10.5px;" fill="#1C1C1E">propose variants  [code / query]</text>
<line x1="660.0" y1="868.0" x2="470.0" y2="868.0" stroke="#6B7280" stroke-width="1.4" stroke-dasharray="6,3"/>
<polygon points="470.0,868.0 478.0,864.0 478.0,872.0" fill="#6B7280"/>
<text x="565.0" y="861.0" text-anchor="middle" style="font-family:-apple-system,'SF Pro Text','Inter','Helvetica Neue',sans-serif;font-size:10.5px;" fill="#6B7280">Variant[]</text>
<line x1="470.0" y1="920.0" x2="1050.0" y2="920.0" stroke="#1C1C1E" stroke-width="1.4" />
<polygon points="1050.0,920.0 1042.0,916.0 1042.0,924.0" fill="#1C1C1E"/>
<text x="760.0" y="913.0" text-anchor="middle" style="font-family:-apple-system,'SF Pro Text','Inter','Helvetica Neue',sans-serif;font-size:10.5px;" fill="#1C1C1E">persist variants · evaluations · rounds</text>
<path d="M 470.0 964.0 C 514.0 964.0 514.0 984.0 470.0 984.0" stroke="#6B7280" stroke-width="1.4" fill="none"/>
<polygon points="470.0,984.0 477.0,977.0 477.0,991.0" fill="#6B7280"/>
<text x="520.0" y="976.0" text-anchor="start" style="font-family:-apple-system,'SF Pro Text','Inter','Helvetica Neue',sans-serif;font-size:10.5px;" fill="#6B7280">PlateauDetector → rotate retriever / boost temp</text>
<line x1="470.0" y1="1032.0" x2="270.0" y2="1032.0" stroke="#6B7280" stroke-width="1.4" stroke-dasharray="6,3"/>
<polygon points="270.0,1032.0 278.0,1028.0 278.0,1036.0" fill="#6B7280"/>
<text x="370.0" y="1025.0" text-anchor="middle" style="font-family:-apple-system,'SF Pro Text','Inter','Helvetica Neue',sans-serif;font-size:10.5px;" fill="#6B7280">best result · termination signal</text>
<line x1="270.0" y1="1116.0" x2="1050.0" y2="1116.0" stroke="#1C1C1E" stroke-width="1.4" />
<polygon points="1050.0,1116.0 1042.0,1112.0 1042.0,1120.0" fill="#1C1C1E"/>
<text x="660.0" y="1109.0" text-anchor="middle" style="font-family:-apple-system,'SF Pro Text','Inter','Helvetica Neue',sans-serif;font-size:10.5px;" fill="#1C1C1E">finalize: costs · diagnostics · report · PRD</text>
<line x1="1050.0" y1="1168.0" x2="1260.0" y2="1168.0" stroke="#1C1C1E" stroke-width="1.4" />
<polygon points="1260.0,1168.0 1252.0,1164.0 1252.0,1172.0" fill="#1C1C1E"/>
<text x="1155.0" y="1161.0" text-anchor="middle" style="font-family:-apple-system,'SF Pro Text','Inter','Helvetica Neue',sans-serif;font-size:10.5px;" fill="#1C1C1E">mirror → world_model.sqlite · observability</text>
<line x1="270.0" y1="1243.0" x2="1260.0" y2="1243.0" stroke="#1C1C1E" stroke-width="1.4" />
<polygon points="1260.0,1243.0 1252.0,1239.0 1252.0,1247.0" fill="#1C1C1E"/>
<text x="765.0" y="1236.0" text-anchor="middle" style="font-family:-apple-system,'SF Pro Text','Inter','Helvetica Neue',sans-serif;font-size:10.5px;" fill="#1C1C1E">P6 · benchmark vs history · stage harness changes</text>
<line x1="1260.0" y1="1295.0" x2="270.0" y2="1295.0" stroke="#6B7280" stroke-width="1.4" stroke-dasharray="6,3"/>
<polygon points="270.0,1295.0 278.0,1291.0 278.0,1299.0" fill="#6B7280"/>
<text x="765.0" y="1288.0" text-anchor="middle" style="font-family:-apple-system,'SF Pro Text','Inter','Helvetica Neue',sans-serif;font-size:10.5px;" fill="#6B7280">P7 · accept winners · promote prompt_versions</text>
<line x1="270.0" y1="1370.0" x2="80.0" y2="1370.0" stroke="#6B7280" stroke-width="1.4" stroke-dasharray="6,3"/>
<polygon points="80.0,1370.0 88.0,1366.0 88.0,1374.0" fill="#6B7280"/>
<text x="175.0" y="1363.0" text-anchor="middle" style="font-family:-apple-system,'SF Pro Text','Inter','Helvetica Neue',sans-serif;font-size:10.5px;" fill="#6B7280">deliver artifacts · benchmarks · diagrams</text>
<rect x="14.0" y="1454.0" width="520.0" height="28.0" rx="4" fill="#FFFFFF" stroke="#D1D5DB" stroke-width="0.8" opacity="1.0"/>
<text x="24.0" y="1472.0" text-anchor="start" style="font-family:-apple-system,'SF Pro Text','Inter','Helvetica Neue',sans-serif;font-size:9px;font-weight:600;" fill="#6B7280">Legend:</text>
<line x1="94" y1="1470" x2="116" y2="1470" stroke="#1C1C1E" stroke-width="1.4"/>
<polygon points="116,1470 109,1466 109,1474" fill="#1C1C1E"/>
<text x="122.0" y="1474.0" text-anchor="start" style="font-family:-apple-system,'SF Pro Text','Inter','Helvetica Neue',sans-serif;font-size:9px;" fill="#1C1C1E">solid = call / request</text>
<line x1="264" y1="1470" x2="286" y2="1470" stroke="#6B7280" stroke-width="1.4" stroke-dasharray="5,3"/>
<polygon points="286,1470 279,1466 279,1474" fill="#6B7280"/>
<text x="292.0" y="1474.0" text-anchor="start" style="font-family:-apple-system,'SF Pro Text','Inter','Helvetica Neue',sans-serif;font-size:9px;" fill="#6B7280">dashed = return / response</text>
<rect x="474.0" y="1463.0" width="10.0" height="10.0" rx="2" fill="#D97843" stroke="none" stroke-width="0" opacity="1.0"/>
<text x="489.0" y="1473.0" text-anchor="start" style="font-family:-apple-system,'SF Pro Text','Inter','Helvetica Neue',sans-serif;font-size:9px;" fill="#6B7280">session loop</text>
<text x="1366.0" y="1482.0" text-anchor="end" style="font-family:-apple-system,'SF Pro Text','Inter','Helvetica Neue',sans-serif;font-size:9px;" fill="#D1D5DB">research-harness · architecture overview</text>
</svg>