<svg xmlns="http://www.w3.org/2000/svg" width="1300" height="1240" viewBox="0 0 1300 1240">
  <defs>
    <marker id="mkGray" viewBox="0 0 12 12" refX="10" refY="6" markerWidth="9" markerHeight="9" orient="auto-start-reverse">
      <path d="M 1 1 L 10 6 L 1 11" fill="none" stroke="#5a6560" stroke-width="1.6" stroke-linecap="round" stroke-linejoin="round"/>
    </marker>
    <marker id="mkTeal" viewBox="0 0 12 12" refX="10" refY="6" markerWidth="9" markerHeight="9" orient="auto-start-reverse">
      <path d="M 1 1 L 10 6 L 1 11" fill="none" stroke="#1a9d7a" stroke-width="1.7" stroke-linecap="round" stroke-linejoin="round"/>
    </marker>
    <marker id="mkBlue" viewBox="0 0 12 12" refX="10" refY="6" markerWidth="10" markerHeight="10" orient="auto-start-reverse">
      <path d="M 1 1 L 10 6 L 1 11" fill="none" stroke="#1d4ed8" stroke-width="1.8" stroke-linecap="round" stroke-linejoin="round"/>
    </marker>
    <marker id="mkGreen" viewBox="0 0 12 12" refX="10" refY="6" markerWidth="10" markerHeight="10" orient="auto-start-reverse">
      <path d="M 1 1 L 10 6 L 1 11" fill="none" stroke="#047857" stroke-width="2" stroke-linecap="round" stroke-linejoin="round"/>
    </marker>
    <style>
      .bg { fill: #f8faf9; }
      .title { font-family: -apple-system, BlinkMacSystemFont, 'Segoe UI', sans-serif; font-size: 34px; font-weight: 750; fill: #0f172a; }
      .subtitle { font-family: -apple-system, BlinkMacSystemFont, 'Segoe UI', sans-serif; font-size: 14px; font-weight: 500; fill: #475569; }
      .lane { font-family: -apple-system, BlinkMacSystemFont, 'Segoe UI', sans-serif; font-size: 16px; font-weight: 700; fill: #334155; }
      .lane-inv { fill: #fff; }
      .small { font-family: -apple-system, BlinkMacSystemFont, 'Segoe UI', sans-serif; font-size: 12px; font-weight: 500; fill: #475569; }
      .tag { font-family: ui-monospace, Menlo, monospace; font-size: 11px; font-weight: 700; fill: #0369a1; }
      .frame-label { font-family: -apple-system, BlinkMacSystemFont, 'Segoe UI', sans-serif; font-size: 13px; font-weight: 700; fill: #0f766e; }
      .p { stroke: #64748b; stroke-width: 2; fill: #f8fafc; }
      .p-cli { stroke: #0d9488; stroke-width: 2; fill: #ccfbf1; }
      .p-orch { stroke: #0d9488; stroke-width: 2; fill: #99f6e4; }
      .p-ag { stroke: #0f766e; stroke-width: 2; fill: #5eead4; }
      .p-st { stroke: #0f766e; stroke-width: 2; fill: #14b8a6; }
      .p-wd { stroke: #0f3d2f; stroke-width: 2.2; fill: #0d9488; }
      .life { stroke: #94a3b8; stroke-width: 2.4; }
      .a { stroke: #475569; stroke-width: 2; fill: none; marker-end: url(#mkGray); }
      .a-teal { stroke: #0d9488; stroke-width: 2.1; fill: none; marker-end: url(#mkTeal); }
      .a-blue { stroke: #2563eb; stroke-width: 2.2; fill: none; marker-end: url(#mkBlue); }
      .a-green { stroke: #047857; stroke-width: 2.6; fill: none; marker-end: url(#mkGreen); }
      .frame { fill: none; stroke: #14b8a6; stroke-width: 2; stroke-dasharray: 10 7; }
    </style>
  </defs>

  <rect class="bg" width="1300" height="1240"/>

  <text class="title" x="650" y="52" text-anchor="middle">Research Harness: session flow</text>
  <text class="subtitle" x="650" y="78" text-anchor="middle">Lifelines on top; Phases 6-7 are the blue arrows in the main vertical flow (then green = next session)</text>

  <!-- Participant headers -->
  <g>
    <rect class="p" x="40" y="104" width="100" height="48" rx="8"/>
    <text class="lane" x="90" y="134" text-anchor="middle">User</text>
    <rect class="p-cli" x="158" y="104" width="120" height="48" rx="8"/>
    <text class="lane" x="218" y="134" text-anchor="middle">CLI</text>
    <rect class="p-orch" x="302" y="104" width="168" height="48" rx="8"/>
    <text class="lane" x="386" y="134" text-anchor="middle">Orchestrator</text>
    <rect class="p-ag" x="498" y="104" width="208" height="48" rx="8"/>
    <text class="lane" x="602" y="134" text-anchor="middle">Agents / Evaluators</text>
    <rect class="p-st" x="734" y="104" width="124" height="48" rx="8"/>
    <text class="lane lane-inv" x="796" y="134" text-anchor="middle">Store</text>
    <rect class="p-wd" x="882" y="104" width="378" height="48" rx="8"/>
    <text class="lane lane-inv" x="1071" y="134" text-anchor="middle">World / Observability / Debugger</text>
  </g>

  <!-- Session loop: outline ONLY (behind lifelines) so grid stays readable -->
  <rect class="frame" x="288" y="318" width="818" height="268" rx="14"/>
  <text class="frame-label" x="304" y="308">Session loop (one run)</text>

  <!-- Region note for evolution (outline only, behind lifelines) -->
  <rect class="frame" x="288" y="618" width="818" height="168" rx="14" stroke="#2563eb" stroke-dasharray="8 6"/>
  <text class="tag" x="304" y="608">Phases 6-7 in main flow (blue) + next session (green)</text>

  <!-- Lifelines ON TOP of frame outlines -->
  <g>
    <line class="life" x1="90" y1="162" x2="90" y2="1080"/>
    <line class="life" x1="218" y1="162" x2="218" y2="1080"/>
    <line class="life" x1="386" y1="162" x2="386" y2="1080"/>
    <line class="life" x1="602" y1="162" x2="602" y2="1080"/>
    <line class="life" x1="796" y1="162" x2="796" y2="1080"/>
    <line class="life" x1="1071" y1="162" x2="1071" y2="1080"/>
  </g>

  <!-- 1. Start -->
  <path class="a" d="M 90 198 L 218 198"/>
  <text class="small" x="100" y="186">goal, flags, interactive setup</text>

  <path class="a" d="M 218 232 L 386 232"/>
  <text class="small" x="228" y="220">start run: argv / output dir / session id</text>

  <!-- 2. Prior context (gray) -->
  <path class="a" d="M 386 268 L 1071 268"/>
  <text class="small" x="560" y="256">Orchestrator queries world: prior traces, memory retriever, SQLite</text>
  <path class="a" d="M 1071 302 L 386 302"/>
  <text class="small" x="620" y="290">return dedupe keys, provenance, observability history</text>

  <!-- 3. Inside session frame: core loop (teal = persistence path today) -->
  <path class="a" d="M 386 348 L 602 348"/>
  <text class="small" x="400" y="336">plan PRD; spawn agents; route evaluators / retrievers</text>

  <path class="a" d="M 602 382 L 796 382"/>
  <text class="small" x="620" y="370">write run JSON, trace.jsonl, costs, provenance (ArtifactStore)</text>

  <!-- Explicit Store column: mirror originates at Store lifeline (796), not Agents -->
  <path class="a-teal" d="M 796 416 L 1071 416"/>
  <text class="small" x="810" y="404">Store to World: mirror rows into world_model.sqlite + run_observability</text>

  <path class="a" d="M 602 450 L 386 450"/>
  <text class="small" x="420" y="438">Agents/Evaluators to Orchestrator: scores, plateau / threshold, continue or exit</text>

  <path class="a" d="M 386 484 C 352 484 352 528 386 528 C 420 528 420 496 386 496" fill="none" stroke="#475569" stroke-width="2" marker-end="url(#mkGray)"/>
  <text class="small" x="255" y="476">while work remains (loop)</text>

  <path class="a" d="M 386 558 L 796 558"/>
  <text class="small" x="430" y="546">finalize run outputs into Store (report, benchmarks, timelines)</text>

  <!-- 4. Phases 6-7: same vertical band, blue arrows (no filled panel over lifelines) -->
  <path class="a-blue" d="M 386 628 L 1071 628"/>
  <text class="small" x="420" y="616">P6 evolution gate: benchmark vs history; stage harness + prompt candidates (harness_changes)</text>

  <path class="a-blue" d="M 1071 668 L 386 668"/>
  <text class="small" x="520" y="656">P7 promotion: accept winners; persist prompt_versions + defaults for the next session</text>

  <!-- 5. Next session closure (green): world state consumed at next entry -->
  <path class="a-green" d="M 1071 708 C 700 748 340 788 386 828"/>
  <text class="small" x="500" y="738" fill="#065f46">next invocation: Orchestrator startup reads promoted world state (then CLI args overlay)</text>

  <path class="a" d="M 386 868 L 90 868"/>
  <text class="small" x="200" y="856">deliver artifacts, benchmarks, diagrams to User</text>

  <!-- Legend -->
  <g>
    <rect fill="#fff" stroke="#e2e8f0" stroke-width="1.5" x="40" y="920" width="560" height="100" rx="10"/>
    <text class="lane" x="58" y="948" font-size="14px">Legend</text>
    <line x1="58" y1="964" x2="102" y2="964" stroke="#475569" stroke-width="4"/>
    <text class="small" x="112" y="970">gray: control + scoring messages</text>
    <line x1="58" y1="986" x2="102" y2="986" stroke="#0d9488" stroke-width="4"/>
    <text class="small" x="112" y="992">teal: Store to World persistence (implemented)</text>
    <line x1="58" y1="1008" x2="102" y2="1008" stroke="#2563eb" stroke-width="4"/>
    <text class="small" x="112" y="1014">blue: Phases 6-7 evolution + promotion (main flow, target)</text>
    <line x1="58" y1="1030" x2="102" y2="1030" stroke="#047857" stroke-width="4"/>
    <text class="small" x="112" y="1036">green: next-session entry from world state</text>
  </g>

  <text class="small" x="650" y="1208" text-anchor="middle" fill="#64748b">Detailed roadmap: research_harness_architecture_phases_3_7.svg</text>
</svg>
