<svg xmlns="http://www.w3.org/2000/svg" width="1800" height="2100" viewBox="0 0 1800 2100">
  <defs>
    <marker id="arrow" viewBox="0 0 12 12" refX="10" refY="6" markerWidth="10" markerHeight="10" orient="auto-start-reverse">
      <path d="M 1 1 L 10 6 L 1 11" fill="none" stroke="#6f756f" stroke-width="1.8" stroke-linecap="round" stroke-linejoin="round"/>
    </marker>
    <marker id="arrowRust" viewBox="0 0 12 12" refX="10" refY="6" markerWidth="10" markerHeight="10" orient="auto-start-reverse">
      <path d="M 1 1 L 10 6 L 1 11" fill="none" stroke="#D97843" stroke-width="1.8" stroke-linecap="round" stroke-linejoin="round"/>
    </marker>
    <style>
      .bg { fill: #FFFFFF; }
      .title { font-family: -apple-system, BlinkMacSystemFont, "Segoe UI", sans-serif; font-size: 56px; font-weight: 760; letter-spacing: 0; fill: #0b0d0c; }
      .subtitle { font-family: -apple-system, BlinkMacSystemFont, "Segoe UI", sans-serif; font-size: 19px; font-weight: 520; fill: #626861; }
      .lane-label { font-family: -apple-system, BlinkMacSystemFont, "Segoe UI", sans-serif; font-size: 22px; font-weight: 720; fill: #5f665f; letter-spacing: 1px; }
      .lane-label-dark { fill: #FFFFFF; }
      .small { font-family: -apple-system, BlinkMacSystemFont, "Segoe UI", sans-serif; font-size: 16px; font-weight: 560; fill: #6b7069; }
      .micro { font-family: ui-monospace, SFMono-Regular, Menlo, Monaco, Consolas, monospace; font-size: 13px; font-weight: 560; fill: #737a72; }
      .phase { font-family: ui-monospace, SFMono-Regular, Menlo, Monaco, Consolas, monospace; font-size: 14px; font-weight: 760; fill: #16775d; }
      .phase-rust { fill: #B85F33; }
      .box-title { font-family: -apple-system, BlinkMacSystemFont, "Segoe UI", sans-serif; font-size: 19px; font-weight: 760; fill: #5e665f; }
      .box-body { font-family: -apple-system, BlinkMacSystemFont, "Segoe UI", sans-serif; font-size: 14px; font-weight: 560; fill: #697069; }
      .callout-title { font-family: -apple-system, BlinkMacSystemFont, "Segoe UI", sans-serif; font-size: 16px; font-weight: 780; fill: #2e332f; }
      .callout { font-family: -apple-system, BlinkMacSystemFont, "Segoe UI", sans-serif; font-size: 13px; font-weight: 560; fill: #5f665f; }
      .line { stroke: #cfd5cc; stroke-width: 2; }
      .arrow { stroke: #6f756f; stroke-width: 2.2; fill: none; marker-end: url(#arrow); }
      .arrow-soft { stroke: #8b9188; stroke-width: 1.9; fill: none; marker-end: url(#arrow); }
      .arrow-rust { stroke: #D97843; stroke-width: 2.3; fill: none; marker-end: url(#arrowRust); }
      .loop { fill: #EAF8F3; stroke: #27AE86; stroke-width: 2.2; }
      .loop-dashed { fill: #FFFFFF; stroke: #D97843; stroke-width: 2.2; stroke-dasharray: 10 8; }
      .participant { stroke: #7a817a; stroke-width: 2.2; }
      .note { fill: #FFFFFF; stroke: #c9cec8; stroke-width: 1.8; }
      .note-rust { fill: #FFF8F3; stroke: #D97843; stroke-width: 1.8; }
    </style>
  </defs>

  <rect class="bg" x="0" y="0" width="1800" height="2100"/>

  <text class="title" x="900" y="92" text-anchor="middle">Research Harness Architecture + TODO Roadmap</text>
  <text class="subtitle" x="900" y="126" text-anchor="middle">Current code path plus Phases 3-7: persistent world model, observability, debugger, gated evolution, long-running autonomy</text>
  <line x1="230" y1="156" x2="1570" y2="156" stroke="#D97843" stroke-width="3"/>

  <!-- Participant headers -->
  <g>
    <rect class="participant" x="58" y="210" width="124" height="66" rx="8" fill="#F7FAF8"/>
    <text class="lane-label" x="120" y="250" text-anchor="middle">User</text>

    <rect class="participant" x="245" y="210" width="150" height="66" rx="8" fill="#BCE8DA"/>
    <text class="lane-label" x="320" y="250" text-anchor="middle">CLI</text>

    <rect class="participant" x="455" y="210" width="240" height="66" rx="8" fill="#76D4BA"/>
    <text class="lane-label" x="575" y="250" text-anchor="middle">Orchestrator</text>

    <rect class="participant" x="760" y="210" width="195" height="66" rx="8" fill="#44BE9A"/>
    <text class="lane-label" x="857" y="250" text-anchor="middle">Agents</text>

    <rect class="participant" x="1012" y="210" width="175" height="66" rx="8" fill="#31B58F"/>
    <text class="lane-label" x="1100" y="250" text-anchor="middle">Evaluators</text>

    <rect class="participant" x="1245" y="210" width="180" height="66" rx="8" fill="#1FAB86"/>
    <text class="lane-label lane-label-dark" x="1335" y="250" text-anchor="middle">Store</text>

    <rect class="participant" x="1482" y="210" width="252" height="66" rx="8" fill="#118A70"/>
    <text class="lane-label lane-label-dark" x="1608" y="250" text-anchor="middle">World + Debug</text>
  </g>

  <!-- Lifelines -->
  <g opacity="0.95">
    <line class="line" x1="120" y1="276" x2="120" y2="1950"/>
    <line class="line" x1="320" y1="276" x2="320" y2="1950"/>
    <line class="line" x1="575" y1="276" x2="575" y2="1950"/>
    <line class="line" x1="857" y1="276" x2="857" y2="1950"/>
    <line class="line" x1="1100" y1="276" x2="1100" y2="1950"/>
    <line class="line" x1="1335" y1="276" x2="1335" y2="1950"/>
    <line class="line" x1="1608" y1="276" x2="1608" y2="1950"/>
  </g>

  <!-- Initial run setup -->
  <path class="arrow" d="M 120 330 L 320 330"/>
  <text class="small" x="138" y="312">goal + flags / interactive choices</text>

  <path class="arrow" d="M 320 398 L 575 398"/>
  <text class="small" x="342" y="380">build HarnessConfig, load dotenv, route mode</text>

  <rect class="note" x="445" y="432" width="260" height="92" rx="8"/>
  <text class="callout-title" x="467" y="464">RunRecord + PRD</text>
  <text class="callout" x="467" y="489">prompt_versions</text>
  <text class="callout" x="467" y="511">harness_config_snapshot</text>
  <text class="phase" x="646" y="464" text-anchor="end">P4</text>
  <path class="arrow-soft" d="M 575 525 L 1335 525"/>
  <text class="small" x="730" y="507">persist initial run, prd.json, progress.txt</text>

  <path class="arrow-soft" d="M 575 590 L 1608 590"/>
  <text class="small" x="735" y="572">retrieve prior artifacts / memory retriever context</text>
  <path class="arrow-soft" d="M 1608 645 L 575 645"/>
  <text class="small" x="846" y="628">cross-run context: sources, claims, hypotheses, trace patterns</text>

  <!-- Main loop -->
  <rect class="loop" x="505" y="690" width="1035" height="760" rx="18"/>
  <rect class="participant" x="745" y="650" width="530" height="88" rx="8" fill="#BCE8DA"/>
  <text class="box-title" x="1010" y="686" text-anchor="middle">Iterative Product-Agent Loop</text>
  <text class="box-body" x="1010" y="712" text-anchor="middle">research / optimize / optimize_query / challenge</text>

  <path d="M 575 780 C 548 780 548 818 575 818 C 608 818 608 792 575 792" fill="none" stroke="#747970" stroke-width="2.1" marker-end="url(#arrow)"/>
  <text class="small" x="548" y="762">think: plan strategy, source lenses, objective</text>

  <path class="arrow" d="M 575 860 L 857 860"/>
  <text class="small" x="595" y="842">spawn literature / hypothesis / critic / synthesis agents</text>
  <path class="arrow" d="M 575 928 L 1100 928"/>
  <text class="small" x="604" y="910">propose variants, route to evaluator or retriever</text>

  <path d="M 857 990 C 827 990 827 1030 857 1030 C 892 1030 892 1000 857 1000" fill="none" stroke="#747970" stroke-width="2.1" marker-end="url(#arrow)"/>
  <text class="small" x="798" y="970">web/search/local/memory tools</text>
  <text class="micro" x="798" y="1058">search.py: local, arxiv, openalex, github, web, memory</text>

  <path class="arrow" d="M 857 1118 L 1335 1118"/>
  <text class="small" x="905" y="1100">write sources, claims, hypotheses, contradictions, failed paths</text>

  <rect class="note" x="1214" y="1160" width="260" height="150" rx="8"/>
  <text class="callout-title" x="1238" y="1190">ArtifactStore</text>
  <text class="callout" x="1238" y="1218">JSON tables + trace.jsonl</text>
  <text class="callout" x="1238" y="1244">provenance_edges.json</text>
  <text class="callout" x="1238" y="1270">cost_events.json</text>
  <text class="callout" x="1238" y="1296">report / notebook / benchmark</text>
  <text class="phase" x="1450" y="1190" text-anchor="end">P3-P4</text>

  <path class="arrow" d="M 1335 1342 L 1608 1342"/>
  <text class="small" x="1362" y="1325">mirror artifacts to world_model.sqlite</text>
  <rect class="note" x="1472" y="1372" width="272" height="138" rx="8"/>
  <text class="callout-title" x="1495" y="1402">Persistent World Model</text>
  <text class="callout" x="1495" y="1430">schema_migrations</text>
  <text class="callout" x="1495" y="1456">cross-run dedupe keys</text>
  <text class="callout" x="1495" y="1482">queryable provenance graph</text>
  <text class="phase" x="1718" y="1402" text-anchor="end">P3</text>

  <path class="arrow" d="M 1100 1218 L 575 1218"/>
  <text class="small" x="720" y="1200">rank scores, evaluate plateau / threshold / target</text>

  <rect class="participant" x="785" y="1278" width="310" height="66" rx="8" fill="#BCE8DA"/>
  <text class="box-title" x="940" y="1319" text-anchor="middle">More loop work needed?</text>
  <path class="arrow-soft" d="M 940 1344 L 940 1392"/>
  <rect class="note" x="805" y="1392" width="270" height="112" rx="8"/>
  <circle cx="842" cy="1430" r="24" fill="#DFF4ED" stroke="#8b9188" stroke-width="2"/>
  <path d="M 831 1430 L 839 1438 L 855 1420" fill="none" stroke="#27AE86" stroke-width="3" stroke-linecap="round" stroke-linejoin="round"/>
  <text class="small" x="878" y="1436">continue: refine / recover</text>
  <circle cx="842" cy="1474" r="24" fill="#F7FAF8" stroke="#8b9188" stroke-width="2"/>
  <path d="M 832 1464 L 852 1484 M 852 1464 L 832 1484" fill="none" stroke="#D97843" stroke-width="3" stroke-linecap="round"/>
  <text class="small" x="878" y="1480">exit: synthesize artifacts</text>

  <path class="arrow-soft" d="M 805 1474 L 575 1474"/>
  <text class="small" x="595" y="1456">LoopContinuationDecision</text>

  <!-- Phase 4 observability -->
  <path class="arrow" d="M 575 1568 L 1335 1568"/>
  <text class="small" x="672" y="1550">finalize run: cost.json, benchmark HTML, notebook, timelines</text>
  <rect class="note" x="1178" y="1598" width="314" height="124" rx="8"/>
  <text class="callout-title" x="1203" y="1628">Observability Surface</text>
  <text class="callout" x="1203" y="1656">token/cost accounting for live calls</text>
  <text class="callout" x="1203" y="1682">failure taxonomy in traces</text>
  <text class="callout" x="1203" y="1708">run_notebook.ipynb + run_benchmark.html</text>
  <text class="phase" x="1467" y="1628" text-anchor="end">P4</text>

  <!-- Debugger -->
  <path class="arrow" d="M 1335 1770 L 1608 1770"/>
  <text class="small" x="1368" y="1752">diagnose snapshot + compare prior trace patterns</text>
  <rect class="note" x="1426" y="1802" width="318" height="132" rx="8"/>
  <text class="callout-title" x="1452" y="1832">Harness Debugger</text>
  <text class="callout" x="1452" y="1860">component-level localization</text>
  <text class="callout" x="1452" y="1886">risk / expected-value scoring</text>
  <text class="callout" x="1452" y="1912">harness_change proposal</text>
  <text class="phase" x="1718" y="1832" text-anchor="end">P5</text>

  <!-- Future gated evolution and long-running autonomy -->
  <rect class="loop-dashed" x="226" y="1608" width="820" height="334" rx="18"/>
  <text class="box-title" x="252" y="1642">Gated Adaptive Evolution + Long-Running Autonomy</text>
  <text class="small" x="252" y="1674">Phase 6 and Phase 7 TODOs are shown as proposed control surfaces, not current mutation behavior.</text>

  <path class="arrow-rust" d="M 1608 1850 L 1015 1850"/>
  <text class="small" x="1120" y="1830" fill="#B85F33">pending config variants, no direct code mutation</text>

  <rect class="note-rust" x="270" y="1712" width="316" height="150" rx="8"/>
  <text class="callout-title" x="294" y="1742">Phase 6 Gate</text>
  <text class="callout" x="294" y="1770">save proposed config variants</text>
  <text class="callout" x="294" y="1796">benchmark comparison before accept</text>
  <text class="callout" x="294" y="1822">keep / reject / ask-human records</text>
  <text class="callout" x="294" y="1848">branch/config only; prevent code mutation</text>
  <text class="phase phase-rust" x="558" y="1742" text-anchor="end">P6 TODO</text>

  <rect class="note-rust" x="656" y="1712" width="336" height="150" rx="8"/>
  <text class="callout-title" x="680" y="1742">Phase 7 Autonomy</text>
  <text class="callout" x="680" y="1770">multi-cycle research loops</text>
  <text class="callout" x="680" y="1796">entropy injection + periodic self-review</text>
  <text class="callout" x="680" y="1822">plateau on source/claim/hypothesis deltas</text>
  <text class="callout" x="680" y="1848">human checkpoints + session continuation</text>
  <text class="phase phase-rust" x="964" y="1742" text-anchor="end">P7 TODO</text>

  <path class="arrow-rust" d="M 575 1888 L 320 1888"/>
  <text class="small" x="352" y="1870" fill="#B85F33">human checkpoint / approval when gate requires it</text>
  <path class="arrow-rust" d="M 320 1918 L 575 1918"/>
  <text class="small" x="346" y="1950" fill="#B85F33">resume or fork session with reviewed config</text>

  <!-- Final return -->
  <path class="arrow" d="M 1335 1996 L 320 1996"/>
  <text class="small" x="706" y="1978">persist report, traces, world model rows, benchmark visuals</text>
  <path class="arrow" d="M 320 2040 L 120 2040"/>
  <text class="small" x="152" y="2022">return artifacts + diagram-ready architecture</text>

  <!-- Participant footers -->
  <g>
    <rect class="participant" x="58" y="1972" width="124" height="66" rx="8" fill="#F7FAF8"/>
    <text class="lane-label" x="120" y="2013" text-anchor="middle">User</text>
    <rect class="participant" x="245" y="1972" width="150" height="66" rx="8" fill="#BCE8DA"/>
    <text class="lane-label" x="320" y="2013" text-anchor="middle">CLI</text>
    <rect class="participant" x="455" y="1972" width="240" height="66" rx="8" fill="#76D4BA"/>
    <text class="lane-label" x="575" y="2013" text-anchor="middle">Orchestrator</text>
    <rect class="participant" x="760" y="1972" width="195" height="66" rx="8" fill="#44BE9A"/>
    <text class="lane-label" x="857" y="2013" text-anchor="middle">Agents</text>
    <rect class="participant" x="1012" y="1972" width="175" height="66" rx="8" fill="#31B58F"/>
    <text class="lane-label" x="1100" y="2013" text-anchor="middle">Evaluators</text>
    <rect class="participant" x="1245" y="1972" width="180" height="66" rx="8" fill="#1FAB86"/>
    <text class="lane-label lane-label-dark" x="1335" y="2013" text-anchor="middle">Store</text>
    <rect class="participant" x="1482" y="1972" width="252" height="66" rx="8" fill="#118A70"/>
    <text class="lane-label lane-label-dark" x="1608" y="2013" text-anchor="middle">World + Debug</text>
  </g>

  <!-- Legend -->
  <rect class="note" x="58" y="1400" width="380" height="168" rx="8"/>
  <text class="callout-title" x="84" y="1432">Implementation Legend</text>
  <line x1="84" y1="1464" x2="146" y2="1464" stroke="#27AE86" stroke-width="4"/>
  <text class="callout" x="162" y="1470">solid teal: implemented Phase 3-5 surfaces</text>
  <line x1="84" y1="1502" x2="146" y2="1502" stroke="#D97843" stroke-width="4" stroke-dasharray="8 7"/>
  <text class="callout" x="162" y="1508">rust dashed: Phase 6-7 gated TODOs</text>
  <text class="micro" x="84" y="1542">source: orchestrator.py, loops.py, agents.py, store.py,</text>
  <text class="micro" x="84" y="1562">diagnostics.py, sessions.py, run_benchmarks.py</text>
</svg>
