<svg xmlns="http://www.w3.org/2000/svg" width="1840" height="2293.8" viewBox="0 0 1840 2293.8">
<rect width="1840" height="2293.8" fill="#f7f8fa"/>
<text x="920.0" y="26.0" text-anchor="middle" style="font-family:'Inter','Helvetica Neue',sans-serif;font-size:21px;font-weight:700;" fill="#1a202c">Research Harness — Complete Session Flow</text>
<text x="920.0" y="44.0" text-anchor="middle" style="font-family:'Inter','Helvetica Neue',sans-serif;font-size:11px;" fill="#718096">Startup · Task Routing · Session Loop (Research + Optimize/Challenge) · Finalization · Phases 6–7 Evolution Gate</text>
<rect x="16.0" y="137.0" width="1808.0" height="390.0" rx="8" ry="8" fill="#1e88e5" stroke="none" stroke-width="0" opacity="0.16"/>
<rect x="16.0" y="513.0" width="1808.0" height="190.0" rx="8" ry="8" fill="#9c27b0" stroke="none" stroke-width="0" opacity="0.16"/>
<rect x="16.0" y="689.0" width="1808.0" height="1128.8" rx="8" ry="8" fill="#9e9e9e" stroke="#616161" stroke-width="1.8" opacity="0.14" stroke-dasharray="9,4"/>
<rect x="16.0" y="689.0" width="179.6" height="18.0" rx="3" ry="3" fill="#616161" stroke="none" stroke-width="0" opacity="1.0"/>
<text x="105.8" y="702.0" text-anchor="middle" style="font-family:'Inter','Helvetica Neue',sans-serif;font-size:9px;font-weight:700;" fill="white">SESSION LOOP  (one run)</text>
<rect x="30.0" y="697.0" width="1780.0" height="694.0" rx="8" ry="8" fill="#43a047" stroke="none" stroke-width="0" opacity="0.11"/>
<rect x="30.0" y="1377.0" width="1780.0" height="436.0" rx="8" ry="8" fill="#fb8c00" stroke="none" stroke-width="0" opacity="0.11"/>
<rect x="38.0" y="1417.0" width="1764.0" height="316.0" rx="8" ry="8" fill="#fb8c00" stroke="#f57c00" stroke-width="1.8" opacity="0.14" stroke-dasharray="9,4"/>
<rect x="38.0" y="1417.0" width="251.6" height="18.0" rx="3" ry="3" fill="#f57c00" stroke="none" stroke-width="0" opacity="1.0"/>
<text x="163.8" y="1430.0" text-anchor="middle" style="font-family:'Inter','Helvetica Neue',sans-serif;font-size:9px;font-weight:700;" fill="white">LOOP  [0 .. max_outer_iterations]</text>
<rect x="16.0" y="1803.8" width="1808.0" height="190.0" rx="8" ry="8" fill="#7e57c2" stroke="none" stroke-width="0" opacity="0.16"/>
<rect x="16.0" y="1979.8" width="1808.0" height="262.0" rx="8" ry="8" fill="#00acc1" stroke="none" stroke-width="0" opacity="0.16"/>
<text x="22.0" y="151.0" text-anchor="start" style="font-family:'Inter','Helvetica Neue',sans-serif;font-size:9px;font-weight:700;letter-spacing:0.07em;" fill="#0d47a1">STARTUP &amp; INITIALIZATION</text>
<text x="22.0" y="527.0" text-anchor="start" style="font-family:'Inter','Helvetica Neue',sans-serif;font-size:9px;font-weight:700;letter-spacing:0.07em;" fill="#4a148c">TASK ROUTING</text>
<text x="22.0" y="711.0" text-anchor="start" style="font-family:'Inter','Helvetica Neue',sans-serif;font-size:9px;font-weight:700;letter-spacing:0.07em;" fill="#1b5e20">RESEARCH PATH</text>
<text x="22.0" y="1391.0" text-anchor="start" style="font-family:'Inter','Helvetica Neue',sans-serif;font-size:9px;font-weight:700;letter-spacing:0.07em;" fill="#bf360c">OPTIMIZE / CHALLENGE PATH</text>
<text x="22.0" y="1817.8" text-anchor="start" style="font-family:'Inter','Helvetica Neue',sans-serif;font-size:9px;font-weight:700;letter-spacing:0.07em;" fill="#4527a0">FINALIZATION</text>
<text x="22.0" y="1993.8" text-anchor="start" style="font-family:'Inter','Helvetica Neue',sans-serif;font-size:9px;font-weight:700;letter-spacing:0.07em;" fill="#006064">PHASES 6-7  EVOLUTION GATE + PROMOTION</text>
<rect x="26.0" y="63.0" width="128.0" height="52.0" rx="5" ry="5" fill="#c8e6c9" stroke="#2e7d32" stroke-width="2" opacity="1.0"/>
<text x="90.0" y="95.0" text-anchor="middle" style="font-family:'Inter','Helvetica Neue',sans-serif;font-size:11px;font-weight:700;" fill="#1b5e20">User</text>
<line x1="90" y1="115" x2="90" y2="2243.8" stroke="#2e7d32" stroke-width="1.2" stroke-dasharray="6,5" opacity="0.45"/>
<rect x="201.0" y="63.0" width="128.0" height="52.0" rx="5" ry="5" fill="#bbdefb" stroke="#1565c0" stroke-width="2" opacity="1.0"/>
<text x="265.0" y="95.0" text-anchor="middle" style="font-family:'Inter','Helvetica Neue',sans-serif;font-size:11px;font-weight:700;" fill="#0d47a1">CLI</text>
<line x1="265" y1="115" x2="265" y2="2243.8" stroke="#1565c0" stroke-width="1.2" stroke-dasharray="6,5" opacity="0.45"/>
<rect x="406.0" y="63.0" width="128.0" height="52.0" rx="5" ry="5" fill="#b2ebf2" stroke="#00838f" stroke-width="2" opacity="1.0"/>
<text x="470.0" y="95.0" text-anchor="middle" style="font-family:'Inter','Helvetica Neue',sans-serif;font-size:11px;font-weight:700;" fill="#006064">Orchestrator</text>
<line x1="470" y1="115" x2="470" y2="2243.8" stroke="#00838f" stroke-width="1.2" stroke-dasharray="6,5" opacity="0.45"/>
<rect x="596.0" y="63.0" width="128.0" height="52.0" rx="5" ry="5" fill="#e1bee7" stroke="#6a1b9a" stroke-width="2" opacity="1.0"/>
<text x="660.0" y="88.0" text-anchor="middle" style="font-family:'Inter','Helvetica Neue',sans-serif;font-size:11px;font-weight:700;" fill="#4a148c">TaskRouter /</text>
<text x="660.0" y="102.0" text-anchor="middle" style="font-family:'Inter','Helvetica Neue',sans-serif;font-size:11px;font-weight:700;" fill="#4a148c">EvolutionLoop</text>
<line x1="660" y1="115" x2="660" y2="2243.8" stroke="#6a1b9a" stroke-width="1.2" stroke-dasharray="6,5" opacity="0.45"/>
<rect x="791.0" y="63.0" width="128.0" height="52.0" rx="5" ry="5" fill="#ffe0b2" stroke="#e65100" stroke-width="2" opacity="1.0"/>
<text x="855.0" y="95.0" text-anchor="middle" style="font-family:'Inter','Helvetica Neue',sans-serif;font-size:11px;font-weight:700;" fill="#bf360c">LLM Client</text>
<line x1="855" y1="115" x2="855" y2="2243.8" stroke="#e65100" stroke-width="1.2" stroke-dasharray="6,5" opacity="0.45"/>
<rect x="981.0" y="63.0" width="128.0" height="52.0" rx="5" ry="5" fill="#c5cae9" stroke="#283593" stroke-width="2" opacity="1.0"/>
<text x="1045.0" y="88.0" text-anchor="middle" style="font-family:'Inter','Helvetica Neue',sans-serif;font-size:11px;font-weight:700;" fill="#1a237e">Agents /</text>
<text x="1045.0" y="102.0" text-anchor="middle" style="font-family:'Inter','Helvetica Neue',sans-serif;font-size:11px;font-weight:700;" fill="#1a237e">Evaluators</text>
<line x1="1045" y1="115" x2="1045" y2="2243.8" stroke="#283593" stroke-width="1.2" stroke-dasharray="6,5" opacity="0.45"/>
<rect x="1156.0" y="63.0" width="128.0" height="52.0" rx="5" ry="5" fill="#f8bbd0" stroke="#880e4f" stroke-width="2" opacity="1.0"/>
<text x="1220.0" y="88.0" text-anchor="middle" style="font-family:'Inter','Helvetica Neue',sans-serif;font-size:11px;font-weight:700;" fill="#560027">Search</text>
<text x="1220.0" y="102.0" text-anchor="middle" style="font-family:'Inter','Helvetica Neue',sans-serif;font-size:11px;font-weight:700;" fill="#560027">Backends</text>
<line x1="1220" y1="115" x2="1220" y2="2243.8" stroke="#880e4f" stroke-width="1.2" stroke-dasharray="6,5" opacity="0.45"/>
<rect x="1326.0" y="63.0" width="128.0" height="52.0" rx="5" ry="5" fill="#dcedc8" stroke="#558b2f" stroke-width="2" opacity="1.0"/>
<text x="1390.0" y="88.0" text-anchor="middle" style="font-family:'Inter','Helvetica Neue',sans-serif;font-size:11px;font-weight:700;" fill="#33691e">Artifact</text>
<text x="1390.0" y="102.0" text-anchor="middle" style="font-family:'Inter','Helvetica Neue',sans-serif;font-size:11px;font-weight:700;" fill="#33691e">Store</text>
<line x1="1390" y1="115" x2="1390" y2="2243.8" stroke="#558b2f" stroke-width="1.2" stroke-dasharray="6,5" opacity="0.45"/>
<rect x="1506.0" y="63.0" width="128.0" height="52.0" rx="5" ry="5" fill="#b2dfdb" stroke="#00695c" stroke-width="2" opacity="1.0"/>
<text x="1570.0" y="88.0" text-anchor="middle" style="font-family:'Inter','Helvetica Neue',sans-serif;font-size:11px;font-weight:700;" fill="#004d40">World / Obs /</text>
<text x="1570.0" y="102.0" text-anchor="middle" style="font-family:'Inter','Helvetica Neue',sans-serif;font-size:11px;font-weight:700;" fill="#004d40">Diagnostics</text>
<line x1="1570" y1="115" x2="1570" y2="2243.8" stroke="#00695c" stroke-width="1.2" stroke-dasharray="6,5" opacity="0.45"/>
<line x1="90.0" y1="159.0" x2="265.0" y2="159.0" stroke="#1b5e20" stroke-width="1.5" />
<polygon points="265.0,159.0 256.0,154.5 256.0,163.5" fill="#1b5e20"/>
<rect x="79.7" y="141.0" width="195.6" height="15.0" rx="5" ry="5" fill="#fafbfc" stroke="none" stroke-width="0" opacity="1.0"/>
<text x="177.5" y="153.0" text-anchor="middle" style="font-family:'Inter','Helvetica Neue',sans-serif;font-size:10px;" fill="#1b5e20">goal · flags · interactive setup</text>
<line x1="265.0" y1="199.0" x2="470.0" y2="199.0" stroke="#0d47a1" stroke-width="1.5" />
<polygon points="470.0,199.0 461.0,194.5 461.0,203.5" fill="#0d47a1"/>
<rect x="275.5" y="181.0" width="184.0" height="15.0" rx="5" ry="5" fill="#fafbfc" stroke="none" stroke-width="0" opacity="1.0"/>
<text x="367.5" y="193.0" text-anchor="middle" style="font-family:'Inter','Helvetica Neue',sans-serif;font-size:10px;" fill="#0d47a1">argv / output_dir / session_id</text>
<line x1="470.0" y1="239.0" x2="1570.0" y2="239.0" stroke="#006064" stroke-width="1.5" />
<polygon points="1570.0,239.0 1561.0,234.5 1561.0,243.5" fill="#006064"/>
<rect x="925.1" y="221.0" width="189.8" height="15.0" rx="5" ry="5" fill="#fafbfc" stroke="none" stroke-width="0" opacity="1.0"/>
<text x="1020.0" y="233.0" text-anchor="middle" style="font-family:'Inter','Helvetica Neue',sans-serif;font-size:10px;" fill="#006064">query prior traces + dedup keys</text>
<line x1="1570.0" y1="279.0" x2="470.0" y2="279.0" stroke="#004d40" stroke-width="1.5" stroke-dasharray="7,3"/>
<polygon points="470.0,279.0 479.0,274.5 479.0,283.5" fill="#004d40"/>
<rect x="904.8" y="261.0" width="230.4" height="15.0" rx="5" ry="5" fill="#fafbfc" stroke="none" stroke-width="0" opacity="1.0"/>
<text x="1020.0" y="273.0" text-anchor="middle" style="font-family:'Inter','Helvetica Neue',sans-serif;font-size:10px;" fill="#004d40">provenance history + run_observability</text>
<line x1="470.0" y1="319.0" x2="855.0" y2="319.0" stroke="#006064" stroke-width="1.5" />
<polygon points="855.0,319.0 846.0,314.5 846.0,323.5" fill="#006064"/>
<rect x="611.1" y="301.0" width="102.8" height="15.0" rx="5" ry="5" fill="#fafbfc" stroke="none" stroke-width="0" opacity="1.0"/>
<text x="662.5" y="313.0" text-anchor="middle" style="font-family:'Inter','Helvetica Neue',sans-serif;font-size:10px;" fill="#006064">interpret_goal()</text>
<line x1="855.0" y1="359.0" x2="470.0" y2="359.0" stroke="#bf360c" stroke-width="1.5" stroke-dasharray="7,3"/>
<polygon points="470.0,359.0 479.0,354.5 479.0,363.5" fill="#bf360c"/>
<rect x="535.7" y="341.0" width="253.6" height="15.0" rx="5" ry="5" fill="#fafbfc" stroke="none" stroke-width="0" opacity="1.0"/>
<text x="662.5" y="353.0" text-anchor="middle" style="font-family:'Inter','Helvetica Neue',sans-serif;font-size:10px;" fill="#bf360c">TaskType + ResearchPlan + stopping_signals</text>
<line x1="470.0" y1="399.0" x2="855.0" y2="399.0" stroke="#006064" stroke-width="1.5" />
<polygon points="855.0,399.0 846.0,394.5 846.0,403.5" fill="#006064"/>
<rect x="587.9" y="381.0" width="149.2" height="15.0" rx="5" ry="5" fill="#fafbfc" stroke="none" stroke-width="0" opacity="1.0"/>
<text x="662.5" y="393.0" text-anchor="middle" style="font-family:'Inter','Helvetica Neue',sans-serif;font-size:10px;" fill="#006064">create_source_strategy()</text>
<line x1="855.0" y1="439.0" x2="470.0" y2="439.0" stroke="#bf360c" stroke-width="1.5" stroke-dasharray="7,3"/>
<polygon points="470.0,439.0 479.0,434.5 479.0,443.5" fill="#bf360c"/>
<rect x="521.2" y="421.0" width="282.6" height="15.0" rx="5" ry="5" fill="#fafbfc" stroke="none" stroke-width="0" opacity="1.0"/>
<text x="662.5" y="433.0" text-anchor="middle" style="font-family:'Inter','Helvetica Neue',sans-serif;font-size:10px;" fill="#bf360c">SourceStrategy[] (retriever · queries · limits)</text>
<line x1="470.0" y1="479.0" x2="1390.0" y2="479.0" stroke="#006064" stroke-width="1.5" />
<polygon points="1390.0,479.0 1381.0,474.5 1381.0,483.5" fill="#006064"/>
<rect x="794.5" y="461.0" width="271.0" height="15.0" rx="5" ry="5" fill="#fafbfc" stroke="none" stroke-width="0" opacity="1.0"/>
<text x="930.0" y="473.0" text-anchor="middle" style="font-family:'Inter','Helvetica Neue',sans-serif;font-size:10px;" fill="#006064">init RunRecord · ArtifactStore · SessionStore</text>
<line x1="470.0" y1="535.0" x2="660.0" y2="535.0" stroke="#6a1b9a" stroke-width="1.5" />
<polygon points="660.0,535.0 651.0,530.5 651.0,539.5" fill="#6a1b9a"/>
<rect x="475.9" y="517.0" width="178.2" height="15.0" rx="5" ry="5" fill="#fafbfc" stroke="none" stroke-width="0" opacity="1.0"/>
<text x="565.0" y="529.0" text-anchor="middle" style="font-family:'Inter','Helvetica Neue',sans-serif;font-size:10px;" fill="#6a1b9a">decide(goal, task_type, mode)</text>
<line x1="660.0" y1="575.0" x2="855.0" y2="575.0" stroke="#6a1b9a" stroke-width="1.5" />
<polygon points="855.0,575.0 846.0,570.5 846.0,579.5" fill="#6a1b9a"/>
<rect x="662.6" y="557.0" width="189.8" height="15.0" rx="5" ry="5" fill="#fafbfc" stroke="none" stroke-width="0" opacity="1.0"/>
<text x="757.5" y="569.0" text-anchor="middle" style="font-family:'Inter','Helvetica Neue',sans-serif;font-size:10px;" fill="#6a1b9a">classify task via LLM (if live)</text>
<line x1="855.0" y1="615.0" x2="660.0" y2="615.0" stroke="#6a1b9a" stroke-width="1.5" stroke-dasharray="7,3"/>
<polygon points="660.0,615.0 669.0,610.5 669.0,619.5" fill="#6a1b9a"/>
<rect x="691.6" y="597.0" width="131.8" height="15.0" rx="5" ry="5" fill="#fafbfc" stroke="none" stroke-width="0" opacity="1.0"/>
<text x="757.5" y="609.0" text-anchor="middle" style="font-family:'Inter','Helvetica Neue',sans-serif;font-size:10px;" fill="#6a1b9a">TaskIngestionDecision</text>
<line x1="660.0" y1="655.0" x2="470.0" y2="655.0" stroke="#6a1b9a" stroke-width="1.5" stroke-dasharray="7,3"/>
<polygon points="470.0,655.0 479.0,650.5 479.0,659.5" fill="#6a1b9a"/>
<rect x="426.6" y="637.0" width="276.8" height="15.0" rx="5" ry="5" fill="#fafbfc" stroke="none" stroke-width="0" opacity="1.0"/>
<text x="565.0" y="649.0" text-anchor="middle" style="font-family:'Inter','Helvetica Neue',sans-serif;font-size:10px;" fill="#6a1b9a">product_agent: research / optimize / challenge</text>
<line x1="470.0" y1="719.0" x2="1045.0" y2="719.0" stroke="#283593" stroke-width="1.5" />
<polygon points="1045.0,719.0 1036.0,714.5 1036.0,723.5" fill="#283593"/>
<rect x="627.8" y="701.0" width="259.4" height="15.0" rx="5" ry="5" fill="#fafbfc" stroke="none" stroke-width="0" opacity="1.0"/>
<text x="757.5" y="713.0" text-anchor="middle" style="font-family:'Inter','Helvetica Neue',sans-serif;font-size:10px;" fill="#283593">[parallel] LiteratureAgent.execute(queries)</text>
<line x1="1045.0" y1="759.0" x2="1220.0" y2="759.0" stroke="#880e4f" stroke-width="1.5" />
<polygon points="1220.0,759.0 1211.0,754.5 1211.0,763.5" fill="#880e4f"/>
<rect x="1069.5" y="741.0" width="126.0" height="15.0" rx="5" ry="5" fill="#fafbfc" stroke="none" stroke-width="0" opacity="1.0"/>
<text x="1132.5" y="753.0" text-anchor="middle" style="font-family:'Inter','Helvetica Neue',sans-serif;font-size:10px;" fill="#880e4f">search(query, limit)</text>
<line x1="1220.0" y1="799.0" x2="1045.0" y2="799.0" stroke="#880e4f" stroke-width="1.5" stroke-dasharray="7,3"/>
<polygon points="1045.0,799.0 1054.0,794.5 1054.0,803.5" fill="#880e4f"/>
<rect x="1043.4" y="781.0" width="178.2" height="15.0" rx="5" ry="5" fill="#fafbfc" stroke="none" stroke-width="0" opacity="1.0"/>
<text x="1132.5" y="793.0" text-anchor="middle" style="font-family:'Inter','Helvetica Neue',sans-serif;font-size:10px;" fill="#880e4f">Document[] + relevance_scores</text>
<line x1="1045.0" y1="839.0" x2="1390.0" y2="839.0" stroke="#558b2f" stroke-width="1.5" />
<polygon points="1390.0,839.0 1381.0,834.5 1381.0,843.5" fill="#558b2f"/>
<rect x="1082.0" y="821.0" width="271.0" height="15.0" rx="5" ry="5" fill="#fafbfc" stroke="none" stroke-width="0" opacity="1.0"/>
<text x="1217.5" y="833.0" text-anchor="middle" style="font-family:'Inter','Helvetica Neue',sans-serif;font-size:10px;" fill="#558b2f">add_source() · add_claim()  (URL/title dedup)</text>
<line x1="1045.0" y1="879.0" x2="470.0" y2="879.0" stroke="#283593" stroke-width="1.5" stroke-dasharray="7,3"/>
<polygon points="470.0,879.0 479.0,874.5 479.0,883.5" fill="#283593"/>
<rect x="624.9" y="861.0" width="265.2" height="15.0" rx="5" ry="5" fill="#fafbfc" stroke="none" stroke-width="0" opacity="1.0"/>
<text x="757.5" y="873.0" text-anchor="middle" style="font-family:'Inter','Helvetica Neue',sans-serif;font-size:10px;" fill="#283593">AgentTrace (prompt · tokens · cost · status)</text>
<line x1="470.0" y1="927.0" x2="1045.0" y2="927.0" stroke="#283593" stroke-width="1.5" />
<polygon points="1045.0,927.0 1036.0,922.5 1036.0,931.5" fill="#283593"/>
<rect x="662.6" y="909.0" width="189.8" height="15.0" rx="5" ry="5" fill="#fafbfc" stroke="none" stroke-width="0" opacity="1.0"/>
<text x="757.5" y="921.0" text-anchor="middle" style="font-family:'Inter','Helvetica Neue',sans-serif;font-size:10px;" fill="#283593">HypothesisAgent.execute(claims)</text>
<line x1="1045.0" y1="967.0" x2="855.0" y2="967.0" stroke="#e65100" stroke-width="1.5" />
<polygon points="855.0,967.0 864.0,962.5 864.0,971.5" fill="#e65100"/>
<rect x="840.6" y="949.0" width="218.8" height="15.0" rx="5" ry="5" fill="#fafbfc" stroke="none" stroke-width="0" opacity="1.0"/>
<text x="950.0" y="961.0" text-anchor="middle" style="font-family:'Inter','Helvetica Neue',sans-serif;font-size:10px;" fill="#e65100">generate_hypotheses(relevant_claims)</text>
<line x1="855.0" y1="1007.0" x2="1045.0" y2="1007.0" stroke="#e65100" stroke-width="1.5" stroke-dasharray="7,3"/>
<polygon points="1045.0,1007.0 1036.0,1002.5 1036.0,1011.5" fill="#e65100"/>
<rect x="808.7" y="989.0" width="282.6" height="15.0" rx="5" ry="5" fill="#fafbfc" stroke="none" stroke-width="0" opacity="1.0"/>
<text x="950.0" y="1001.0" text-anchor="middle" style="font-family:'Inter','Helvetica Neue',sans-serif;font-size:10px;" fill="#e65100">Hypothesis[] (novelty · testability · next_exp)</text>
<line x1="1045.0" y1="1047.0" x2="1390.0" y2="1047.0" stroke="#558b2f" stroke-width="1.5" />
<polygon points="1390.0,1047.0 1381.0,1042.5 1381.0,1051.5" fill="#558b2f"/>
<rect x="1102.3" y="1029.0" width="230.4" height="15.0" rx="5" ry="5" fill="#fafbfc" stroke="none" stroke-width="0" opacity="1.0"/>
<text x="1217.5" y="1041.0" text-anchor="middle" style="font-family:'Inter','Helvetica Neue',sans-serif;font-size:10px;" fill="#558b2f">add_hypothesis() · add_open_question()</text>
<line x1="470.0" y1="1095.0" x2="1045.0" y2="1095.0" stroke="#283593" stroke-width="1.5" />
<polygon points="1045.0,1095.0 1036.0,1090.5 1036.0,1099.5" fill="#283593"/>
<rect x="639.4" y="1077.0" width="236.2" height="15.0" rx="5" ry="5" fill="#fafbfc" stroke="none" stroke-width="0" opacity="1.0"/>
<text x="757.5" y="1089.0" text-anchor="middle" style="font-family:'Inter','Helvetica Neue',sans-serif;font-size:10px;" fill="#283593">CriticAgent.execute(claims, hypotheses)</text>
<line x1="1045.0" y1="1135.0" x2="1390.0" y2="1135.0" stroke="#558b2f" stroke-width="1.5" />
<polygon points="1390.0,1135.0 1381.0,1130.5 1381.0,1139.5" fill="#558b2f"/>
<rect x="1067.5" y="1117.0" width="300.0" height="15.0" rx="5" ry="5" fill="#fafbfc" stroke="none" stroke-width="0" opacity="1.0"/>
<text x="1217.5" y="1129.0" text-anchor="middle" style="font-family:'Inter','Helvetica Neue',sans-serif;font-size:10px;" fill="#558b2f">add_contradiction() · flag_low_confidence_claims()</text>
<line x1="1045.0" y1="1175.0" x2="470.0" y2="1175.0" stroke="#283593" stroke-width="1.5" stroke-dasharray="7,3"/>
<polygon points="470.0,1175.0 479.0,1170.5 479.0,1179.5" fill="#283593"/>
<rect x="656.8" y="1157.0" width="201.4" height="15.0" rx="5" ry="5" fill="#fafbfc" stroke="none" stroke-width="0" opacity="1.0"/>
<text x="757.5" y="1169.0" text-anchor="middle" style="font-family:'Inter','Helvetica Neue',sans-serif;font-size:10px;" fill="#283593">AgentTrace (contradictions found)</text>
<line x1="470.0" y1="1223.0" x2="1045.0" y2="1223.0" stroke="#283593" stroke-width="1.5" />
<polygon points="1045.0,1223.0 1036.0,1218.5 1036.0,1227.5" fill="#283593"/>
<rect x="645.2" y="1205.0" width="224.6" height="15.0" rx="5" ry="5" fill="#fafbfc" stroke="none" stroke-width="0" opacity="1.0"/>
<text x="757.5" y="1217.0" text-anchor="middle" style="font-family:'Inter','Helvetica Neue',sans-serif;font-size:10px;" fill="#283593">SynthesisAgent.execute(all artifacts)</text>
<line x1="1045.0" y1="1263.0" x2="855.0" y2="1263.0" stroke="#e65100" stroke-width="1.5" />
<polygon points="855.0,1263.0 864.0,1258.5 864.0,1267.5" fill="#e65100"/>
<rect x="811.6" y="1245.0" width="276.8" height="15.0" rx="5" ry="5" fill="#fafbfc" stroke="none" stroke-width="0" opacity="1.0"/>
<text x="950.0" y="1257.0" text-anchor="middle" style="font-family:'Inter','Helvetica Neue',sans-serif;font-size:10px;" fill="#e65100">write_report(sources · claims · hyps · contrs)</text>
<line x1="855.0" y1="1303.0" x2="1045.0" y2="1303.0" stroke="#e65100" stroke-width="1.5" stroke-dasharray="7,3"/>
<polygon points="1045.0,1303.0 1036.0,1298.5 1036.0,1307.5" fill="#e65100"/>
<rect x="878.3" y="1285.0" width="143.4" height="15.0" rx="5" ry="5" fill="#fafbfc" stroke="none" stroke-width="0" opacity="1.0"/>
<text x="950.0" y="1297.0" text-anchor="middle" style="font-family:'Inter','Helvetica Neue',sans-serif;font-size:10px;" fill="#e65100">final_report.md content</text>
<line x1="1045.0" y1="1343.0" x2="1390.0" y2="1343.0" stroke="#558b2f" stroke-width="1.5" />
<polygon points="1390.0,1343.0 1381.0,1338.5 1381.0,1347.5" fill="#558b2f"/>
<rect x="1090.7" y="1325.0" width="253.6" height="15.0" rx="5" ry="5" fill="#fafbfc" stroke="none" stroke-width="0" opacity="1.0"/>
<text x="1217.5" y="1337.0" text-anchor="middle" style="font-family:'Inter','Helvetica Neue',sans-serif;font-size:10px;" fill="#558b2f">write_report() · fabricated_source_check()</text>
<line x1="470.0" y1="1399.0" x2="660.0" y2="1399.0" stroke="#6a1b9a" stroke-width="1.5" />
<polygon points="660.0,1399.0 651.0,1394.5 651.0,1403.5" fill="#6a1b9a"/>
<rect x="423.7" y="1381.0" width="282.6" height="15.0" rx="5" ry="5" fill="#fafbfc" stroke="none" stroke-width="0" opacity="1.0"/>
<text x="565.0" y="1393.0" text-anchor="middle" style="font-family:'Inter','Helvetica Neue',sans-serif;font-size:10px;" fill="#6a1b9a">EvolutionaryOuterLoop.run(max_outer_iterations)</text>
<line x1="660.0" y1="1439.0" x2="855.0" y2="1439.0" stroke="#e65100" stroke-width="1.5" />
<polygon points="855.0,1439.0 846.0,1434.5 846.0,1443.5" fill="#e65100"/>
<rect x="616.2" y="1421.0" width="282.6" height="15.0" rx="5" ry="5" fill="#fafbfc" stroke="none" stroke-width="0" opacity="1.0"/>
<text x="757.5" y="1433.0" text-anchor="middle" style="font-family:'Inter','Helvetica Neue',sans-serif;font-size:10px;" fill="#e65100">propose_variants(kind, parent_ids, temperature)</text>
<line x1="855.0" y1="1479.0" x2="660.0" y2="1479.0" stroke="#e65100" stroke-width="1.5" stroke-dasharray="7,3"/>
<polygon points="660.0,1479.0 669.0,1474.5 669.0,1483.5" fill="#e65100"/>
<rect x="659.7" y="1461.0" width="195.6" height="15.0" rx="5" ry="5" fill="#fafbfc" stroke="none" stroke-width="0" opacity="1.0"/>
<text x="757.5" y="1473.0" text-anchor="middle" style="font-family:'Inter','Helvetica Neue',sans-serif;font-size:10px;" fill="#e65100">Variant[] (code / query payload)</text>
<line x1="660.0" y1="1519.0" x2="1390.0" y2="1519.0" stroke="#558b2f" stroke-width="1.5" />
<polygon points="1390.0,1519.0 1381.0,1514.5 1381.0,1523.5" fill="#558b2f"/>
<rect x="875.0" y="1501.0" width="300.0" height="15.0" rx="5" ry="5" fill="#fafbfc" stroke="none" stroke-width="0" opacity="1.0"/>
<text x="1025.0" y="1513.0" text-anchor="middle" style="font-family:'Inter','Helvetica Neue',sans-serif;font-size:10px;" fill="#558b2f">add_variant(outer_iter · kind · payload · parents)</text>
<line x1="660.0" y1="1559.0" x2="1045.0" y2="1559.0" stroke="#283593" stroke-width="1.5" />
<polygon points="1045.0,1559.0 1036.0,1554.5 1036.0,1563.5" fill="#283593"/>
<rect x="722.8" y="1541.0" width="259.4" height="15.0" rx="5" ry="5" fill="#fafbfc" stroke="none" stroke-width="0" opacity="1.0"/>
<text x="852.5" y="1553.0" text-anchor="middle" style="font-family:'Inter','Helvetica Neue',sans-serif;font-size:10px;" fill="#283593">[parallel] evaluate(variant) via inner loop</text>
<line x1="1045.0" y1="1599.0" x2="1390.0" y2="1599.0" stroke="#558b2f" stroke-width="1.5" />
<polygon points="1390.0,1599.0 1381.0,1594.5 1381.0,1603.5" fill="#558b2f"/>
<rect x="1055.9" y="1581.0" width="323.2" height="15.0" rx="5" ry="5" fill="#fafbfc" stroke="none" stroke-width="0" opacity="1.0"/>
<text x="1217.5" y="1593.0" text-anchor="middle" style="font-family:'Inter','Helvetica Neue',sans-serif;font-size:10px;" fill="#558b2f">add_variant_evaluation(score · metrics · judge_scores)</text>
<line x1="660.0" y1="1639.0" x2="1390.0" y2="1639.0" stroke="#558b2f" stroke-width="1.5" />
<polygon points="1390.0,1639.0 1381.0,1634.5 1381.0,1643.5" fill="#558b2f"/>
<rect x="869.2" y="1621.0" width="311.6" height="15.0" rx="5" ry="5" fill="#fafbfc" stroke="none" stroke-width="0" opacity="1.0"/>
<text x="1025.0" y="1633.0" text-anchor="middle" style="font-family:'Inter','Helvetica Neue',sans-serif;font-size:10px;" fill="#558b2f">add_evolution_round(best_score · termination_signal)</text>
<path d="M 660.0 1671.0 C 706.0 1671.0 706.0 1691.0 660.0 1691.0" stroke="#6a1b9a" stroke-width="1.4" fill="none"/>
<polygon points="660.0,1691.0 667.0,1685.0 667.0,1697.0" fill="#6a1b9a"/>
<text x="712.0" y="1683.0" text-anchor="start" style="font-family:'Inter','Helvetica Neue',sans-serif;font-size:10px;" fill="#6a1b9a">PlateauDetector: rotate_retriever / boost_temperature / mutate</text>
<line x1="660.0" y1="1725.0" x2="470.0" y2="1725.0" stroke="#6a1b9a" stroke-width="1.5" stroke-dasharray="7,3"/>
<polygon points="470.0,1725.0 479.0,1720.5 479.0,1729.5" fill="#6a1b9a"/>
<rect x="412.1" y="1707.0" width="305.8" height="15.0" rx="5" ry="5" fill="#fafbfc" stroke="none" stroke-width="0" opacity="1.0"/>
<text x="565.0" y="1719.0" text-anchor="middle" style="font-family:'Inter','Helvetica Neue',sans-serif;font-size:10px;" fill="#6a1b9a">termination: score_threshold / plateau / budget_hit</text>
<line x1="660.0" y1="1765.0" x2="1390.0" y2="1765.0" stroke="#558b2f" stroke-width="1.5" />
<polygon points="1390.0,1765.0 1381.0,1760.5 1381.0,1769.5" fill="#558b2f"/>
<rect x="880.8" y="1747.0" width="288.4" height="15.0" rx="5" ry="5" fill="#fafbfc" stroke="none" stroke-width="0" opacity="1.0"/>
<text x="1025.0" y="1759.0" text-anchor="middle" style="font-family:'Inter','Helvetica Neue',sans-serif;font-size:10px;" fill="#558b2f">write optimization_result.json · optimal_code.py</text>
<line x1="470.0" y1="1825.8" x2="1390.0" y2="1825.8" stroke="#006064" stroke-width="1.5" />
<polygon points="1390.0,1825.8 1381.0,1821.3 1381.0,1830.3" fill="#006064"/>
<rect x="803.2" y="1807.8" width="253.6" height="15.0" rx="5" ry="5" fill="#fafbfc" stroke="none" stroke-width="0" opacity="1.0"/>
<text x="930.0" y="1819.8" text-anchor="middle" style="font-family:'Inter','Helvetica Neue',sans-serif;font-size:10px;" fill="#006064">write_prd() · cost.json · cost_events.json</text>
<line x1="470.0" y1="1865.8" x2="1390.0" y2="1865.8" stroke="#006064" stroke-width="1.5" />
<polygon points="1390.0,1865.8 1381.0,1861.3 1381.0,1870.3" fill="#006064"/>
<rect x="765.5" y="1847.8" width="329.0" height="15.0" rx="5" ry="5" fill="#fafbfc" stroke="none" stroke-width="0" opacity="1.0"/>
<text x="930.0" y="1859.8" text-anchor="middle" style="font-family:'Inter','Helvetica Neue',sans-serif;font-size:10px;" fill="#006064">diagnose_snapshot() → failure_taxonomy · score_patterns</text>
<line x1="1390.0" y1="1905.8" x2="1570.0" y2="1905.8" stroke="#00695c" stroke-width="1.5" />
<polygon points="1570.0,1905.8 1561.0,1901.3 1561.0,1910.3" fill="#00695c"/>
<rect x="1324.2" y="1887.8" width="311.6" height="15.0" rx="5" ry="5" fill="#fafbfc" stroke="none" stroke-width="0" opacity="1.0"/>
<text x="1480.0" y="1899.8" text-anchor="middle" style="font-family:'Inter','Helvetica Neue',sans-serif;font-size:10px;" fill="#00695c">mirror rows → world_model.sqlite · run_observability</text>
<line x1="1570.0" y1="1945.8" x2="470.0" y2="1945.8" stroke="#00695c" stroke-width="1.5" stroke-dasharray="7,3"/>
<polygon points="470.0,1945.8 479.0,1941.3 479.0,1950.3" fill="#00695c"/>
<rect x="907.7" y="1927.8" width="224.6" height="15.0" rx="5" ry="5" fill="#fafbfc" stroke="none" stroke-width="0" opacity="1.0"/>
<text x="1020.0" y="1939.8" text-anchor="middle" style="font-family:'Inter','Helvetica Neue',sans-serif;font-size:10px;" fill="#00695c">updated dedup_keys · provenance_edges</text>
<line x1="470.0" y1="2001.8" x2="1570.0" y2="2001.8" stroke="#00695c" stroke-width="1.5" />
<polygon points="1570.0,2001.8 1561.0,1997.3 1561.0,2006.3" fill="#00695c"/>
<rect x="875.8" y="1983.8" width="288.4" height="15.0" rx="5" ry="5" fill="#fafbfc" stroke="none" stroke-width="0" opacity="1.0"/>
<text x="1020.0" y="1995.8" text-anchor="middle" style="font-family:'Inter','Helvetica Neue',sans-serif;font-size:10px;" fill="#00695c">P6: benchmark vs history · stage harness_changes</text>
<line x1="1570.0" y1="2041.8" x2="470.0" y2="2041.8" stroke="#00695c" stroke-width="1.5" stroke-dasharray="7,3"/>
<polygon points="470.0,2041.8 479.0,2037.3 479.0,2046.3" fill="#00695c"/>
<rect x="855.5" y="2023.8" width="329.0" height="15.0" rx="5" ry="5" fill="#fafbfc" stroke="none" stroke-width="0" opacity="1.0"/>
<text x="1020.0" y="2035.8" text-anchor="middle" style="font-family:'Inter','Helvetica Neue',sans-serif;font-size:10px;" fill="#00695c">P7: accept winners · persist prompt_versions · defaults</text>
<line x1="470.0" y1="2081.8" x2="1390.0" y2="2081.8" stroke="#558b2f" stroke-width="1.5" />
<polygon points="1390.0,2081.8 1381.0,2077.3 1381.0,2086.3" fill="#558b2f"/>
<rect x="809.0" y="2063.8" width="242.0" height="15.0" rx="5" ry="5" fill="#fafbfc" stroke="none" stroke-width="0" opacity="1.0"/>
<text x="930.0" y="2075.8" text-anchor="middle" style="font-family:'Inter','Helvetica Neue',sans-serif;font-size:10px;" fill="#558b2f">persist prompt_versions for next session</text>
<line x1="1570.0" y1="2137.8" x2="470.0" y2="2137.8" stroke="#004d40" stroke-width="1.5" stroke-dasharray="7,3"/>
<polygon points="470.0,2137.8 479.0,2133.3 479.0,2142.3" fill="#004d40"/>
<rect x="849.7" y="2119.8" width="340.6" height="15.0" rx="5" ry="5" fill="#fafbfc" stroke="none" stroke-width="0" opacity="1.0"/>
<text x="1020.0" y="2131.8" text-anchor="middle" style="font-family:'Inter','Helvetica Neue',sans-serif;font-size:10px;" fill="#004d40">next invocation: reads promoted world state (CLI overlay)</text>
<line x1="265.0" y1="2193.8" x2="90.0" y2="2193.8" stroke="#1565c0" stroke-width="1.5" stroke-dasharray="7,3"/>
<polygon points="90.0,2193.8 99.0,2189.3 99.0,2198.3" fill="#1565c0"/>
<rect x="53.6" y="2175.8" width="247.8" height="15.0" rx="5" ry="5" fill="#fafbfc" stroke="none" stroke-width="0" opacity="1.0"/>
<text x="177.5" y="2187.8" text-anchor="middle" style="font-family:'Inter','Helvetica Neue',sans-serif;font-size:10px;" fill="#1565c0">deliver artifacts · benchmarks · diagrams</text>
<rect x="16.0" y="2247.8" width="640.0" height="38.0" rx="6" ry="6" fill="white" stroke="#cbd5e0" stroke-width="1" opacity="1.0"/>
<text x="26.0" y="2261.8" text-anchor="start" style="font-family:'Inter','Helvetica Neue',sans-serif;font-size:10px;font-weight:700;" fill="#2d3748">Legend:</text>
<line x1="106" y1="2269.8" x2="136" y2="2269.8" stroke="#374151" stroke-width="1.5"/>
<polygon points="136,2269.8 128,2265.8 128,2273.8" fill="#374151"/>
<text x="142.0" y="2273.8" text-anchor="start" style="font-family:'Inter','Helvetica Neue',sans-serif;font-size:9px;" fill="#4a5568">solid = request / call</text>
<line x1="356" y1="2269.8" x2="386" y2="2269.8" stroke="#374151" stroke-width="1.5" stroke-dasharray="5,3"/>
<polygon points="386,2269.8 378,2265.8 378,2273.8" fill="#374151"/>
<text x="392.0" y="2273.8" text-anchor="start" style="font-family:'Inter','Helvetica Neue',sans-serif;font-size:9px;" fill="#4a5568">dashed = return / response</text>
<text x="1824.0" y="2281.8" text-anchor="end" style="font-family:'Inter','Helvetica Neue',sans-serif;font-size:9px;" fill="#a0aec0">research-harness · generated 2026-05-09</text>
</svg>